<svg xmlns="http://www.w3.org/2000/svg" viewBox="0 0 300 400" width="300" height="400">
  <defs>
    <linearGradient id="bgF" x1="0" y1="0" x2="1" y2="1">
      <stop offset="0%" stop-color="#f9e7e7"/>
      <stop offset="55%" stop-color="#f5eddd"/>
      <stop offset="100%" stop-color="#ead9bb"/>
    </linearGradient>
    <linearGradient id="hijabF" x1="0" y1="0" x2="0" y2="1">
      <stop offset="0%" stop-color="#b6424d"/>
      <stop offset="100%" stop-color="#8e2f3a"/>
    </linearGradient>
    <linearGradient id="goldF" x1="0" y1="0" x2="1" y2="1">
      <stop offset="0%" stop-color="#f8dc91"/>
      <stop offset="100%" stop-color="#bf7e22"/>
    </linearGradient>
  </defs>
  <rect width="300" height="400" fill="url(#bgF)"/>
  <circle cx="150" cy="60" r="110" fill="#ffffff" opacity="0.3"/>
  <circle cx="260" cy="330" r="90" fill="#ffffff" opacity="0.2"/>
  <!-- body / abaya -->
  <path d="M150 210c-54 0-90 36-98 90-3 22-4 55-4 100h204c0-45-1-78-4-100-8-54-44-90-98-90z" fill="url(#hijabF)"/>
  <!-- hijab outer -->
  <path d="M150 58c-50 0-82 34-82 86 0 40 10 70 24 88 8 10 20 16 32 18l26 2 26-2c12-2 24-8 32-18 14-18 24-48 24-88 0-52-32-86-82-86z" fill="url(#hijabF)"/>
  <!-- face opening -->
  <ellipse cx="150" cy="146" rx="46" ry="54" fill="#e8b88c"/>
  <!-- hijab inner rim -->
  <path d="M150 84c-32 0-52 24-52 60 0 4 0 8 1 12 4-32 22-50 51-50s47 18 51 50c1-4 1-8 1-12 0-36-20-60-52-60z" fill="#f9e7e7" opacity="0.85"/>
  <!-- face features -->
  <circle cx="132" cy="146" r="5" fill="#301b0d"/>
  <circle cx="168" cy="146" r="5" fill="#301b0d"/>
  <path d="M126 132c4-4 10-5 14-3" stroke="#301b0d" stroke-width="3" stroke-linecap="round" fill="none"/>
  <path d="M174 132c-4-4-10-5-14-3" stroke="#301b0d" stroke-width="3" stroke-linecap="round" fill="none"/>
  <path d="M140 176c6 5 14 5 20 0" stroke="#301b0d" stroke-width="4" stroke-linecap="round" fill="none"/>
  <!-- gold brooch -->
  <circle cx="150" cy="236" r="8" fill="url(#goldF)"/>
  <circle cx="150" cy="236" r="3.5" fill="#fffaf0"/>
  <!-- gold accent ring -->
  <circle cx="150" cy="150" r="142" stroke="url(#goldF)" stroke-width="3" fill="none" opacity="0.55"/>
</svg>
